<svg width="100" height="100" viewBox="0 0 100 100" fill="none" xmlns="http://www.w3.org/2000/svg">
<circle cx="50" cy="50" r="50" fill="#BDBDBD"/>
<path d="M49.9479 48.5422C34.0361 48.5722 20.8731 61.17 20.0781 77.0904C20.057 77.5421 20.128 77.9935 20.2868 78.417C20.4456 78.8405 20.689 79.2272 21.002 79.5537C21.3151 79.8801 21.6913 80.1395 22.1077 80.3159C22.5242 80.4923 22.9722 80.5822 23.4245 80.5799H76.6016C77.0517 80.5786 77.4968 80.4862 77.9102 80.3082C78.3236 80.1302 78.6967 79.8703 79.007 79.5442C79.3172 79.2182 79.5582 78.8326 79.7155 78.4109C79.8727 77.9892 79.9429 77.54 79.9219 77.0904C79.1259 61.1498 65.932 48.5439 50 48.5422H49.9479Z" fill="white"/>
<path d="M50.0012 13.42C41.5665 13.42 34.69 20.3288 34.6899 28.7729C34.6899 37.217 41.5664 44.1497 50.0012 44.1497C58.436 44.1497 65.3363 37.217 65.3363 28.7729C65.3362 20.3288 58.4359 13.42 50.0012 13.42Z" fill="white"/>
</svg>
