<svg width="24" height="24" viewBox="0 0 24 24" fill="none" xmlns="http://www.w3.org/2000/svg">
<g clip-path="url(#clip0_64_236)">
<path d="M15.8689 5.9575C15.8689 5.94836 15.8689 5.93921 15.8689 5.93267C15.8689 5.49864 15.8369 5.0816 15.7807 4.67371C15.4044 2.00153 13.8537 0 12.0009 0C10.1327 0 8.57301 2.02899 8.2108 4.73123C8.16136 5.10513 8.1341 5.49472 8.13323 5.89215C8.13323 5.90521 8.13153 5.9196 8.13153 5.93267C8.13153 8.93953 9.59191 11.4196 11.4827 11.8078C11.6527 11.8418 11.8244 11.8666 12.0009 11.8666C12.156 11.8666 12.306 11.851 12.4555 11.8222C14.3715 11.4757 15.86 8.9866 15.8689 5.9575Z" fill="#0F0742"/>
<path d="M20.8943 14.08L19.341 17.2528L17.7877 14.08C17.6058 14.178 17.4324 14.2996 17.2602 14.4316C18.5054 16.3469 19.2784 18.9982 19.2784 21.937V24H24V20.9199C24 17.7575 22.702 15.0774 20.8943 14.08Z" fill="#0F0742"/>
<path d="M17.1388 6.01634C17.0459 6.18368 16.9615 6.35886 16.8861 6.54581C16.6039 7.23217 16.4377 8.0414 16.4377 8.91077C16.4377 9.17485 16.4548 9.43109 16.4838 9.67949C16.5848 10.5632 16.8528 11.3529 17.2389 11.9739C17.4396 12.3007 17.6719 12.5791 17.9292 12.8014C18.3473 13.1583 18.8275 13.3622 19.341 13.3622C20.9429 13.3622 22.2434 11.3699 22.2434 8.91077C22.2434 6.87786 21.3533 5.16397 20.1396 4.63188C20.0365 4.58874 19.9308 4.55343 19.8247 4.52467C19.7386 4.50376 19.6525 4.48808 19.5652 4.47761C19.491 4.46977 19.4173 4.458 19.341 4.458C18.4585 4.458 17.671 5.0646 17.1388 6.01634Z" fill="#0F0742"/>
<path d="M3.10483 14.08L4.65895 17.2528L6.21221 14.08C6.39417 14.178 6.56761 14.2996 6.73977 14.4316C5.49332 16.3469 4.72116 18.9982 4.72116 21.937V24H0V20.9199C0 17.7575 1.29801 15.0774 3.10483 14.08Z" fill="#0F0742"/>
<path d="M6.8608 6.01634C6.95369 6.18368 7.03893 6.35886 7.11477 6.54581C7.39602 7.23217 7.56136 8.0414 7.56136 8.91077C7.56136 9.17485 7.54432 9.43109 7.51534 9.67949C7.4152 10.5632 7.14716 11.3529 6.76109 11.9739C6.55994 12.3007 6.32813 12.5791 6.07074 12.8014C5.6527 13.1583 5.17244 13.3622 4.65895 13.3622C3.0571 13.3622 1.75653 11.3699 1.75653 8.91077C1.75653 6.87786 2.64716 5.16397 3.8608 4.63188C3.96307 4.58874 4.06833 4.55343 4.17699 4.52467C4.25966 4.50376 4.34744 4.48808 4.4348 4.47761C4.50895 4.46977 4.58268 4.458 4.65895 4.458C5.54063 4.458 6.32898 5.0646 6.8608 6.01634Z" fill="#0F0742"/>
<path d="M15.9971 14.5467C15.5877 14.0081 15.1313 13.5544 14.6416 13.1923C14.455 13.0537 14.2662 12.9282 14.0693 12.8184L13.5699 13.8433L12.4555 16.1194L11.9987 17.0515L11.4827 15.9965L10.4455 13.8734L9.93068 12.8184C9.72528 12.9347 9.52458 13.0694 9.32898 13.2145C8.83934 13.5792 8.38551 14.0355 7.97557 14.5807C7.74972 14.88 7.53751 15.2082 7.34191 15.5559C6.37841 17.2555 5.78992 19.4871 5.78992 21.937V24H18.2101V21.937C18.2101 19.4675 17.6131 17.2228 16.6346 15.5115C16.4378 15.1676 16.2247 14.8461 15.9971 14.5467Z" fill="#0F0742"/>
</g>
<defs>
<clipPath id="clip0_64_236">
<rect width="24" height="24" fill="white"/>
</clipPath>
</defs>
</svg>
