<svg width="40" height="40" viewBox="0 0 40 40" fill="none" xmlns="http://www.w3.org/2000/svg">
<path d="M37.1426 11.9926C37.1426 12.5825 36.9362 13.0839 36.5233 13.4968L20.5085 29.5114L17.5002 32.5197C17.0874 32.9327 16.586 33.1391 15.9961 33.1391C15.4062 33.1391 14.9049 32.9327 14.492 32.5197L11.4836 29.5114L3.47628 21.504C3.06338 21.0912 2.85693 20.5899 2.85693 20C2.85693 19.4101 3.06338 18.9086 3.47628 18.4957L6.48459 15.4874C6.89749 15.0746 7.39887 14.8683 7.98873 14.8683C8.5786 14.8683 9.07998 15.0746 9.49288 15.4874L15.9961 22.0128L30.5067 7.48027C30.9196 7.06732 31.421 6.86084 32.0108 6.86084C32.6007 6.86084 33.1021 7.06732 33.515 7.48027L36.5233 10.4886C36.9362 10.9013 37.1426 11.4026 37.1426 11.9926Z" fill="white"/>
</svg>
