<svg width="27" height="27" viewBox="0 0 27 27" fill="none" xmlns="http://www.w3.org/2000/svg">
<g clip-path="url(#clip0_111_402)">
<path d="M13.6741 26.0647C6.49401 26.0647 0.674072 20.2448 0.674072 13.0647C0.674072 5.88463 6.49401 0.0646973 13.6741 0.0646973C20.8541 0.0646973 26.6741 5.88463 26.6741 13.0647C26.6741 20.2448 20.8541 26.0647 13.6741 26.0647ZM13.6741 22.0022C18.61 22.0022 22.6116 18.0006 22.6116 13.0647C22.6116 8.12876 18.61 4.1272 13.6741 4.1272C8.73813 4.1272 4.73657 8.12876 4.73657 13.0647C4.73657 18.0006 8.73813 22.0022 13.6741 22.0022ZM12.8713 5.54095C13.2256 5.51657 13.5823 5.50032 13.9373 5.48813C13.9414 6.21695 13.9398 6.94657 13.9373 7.67538L12.8729 7.67376C12.8729 6.96282 12.8729 6.25188 12.8713 5.54095V5.54095ZM15.4323 7.70788H15.4331C15.4315 7.03757 15.4315 6.36726 15.4364 5.69776C17.4108 6.19257 19.169 7.48282 20.2033 9.23864C21.3741 11.1862 21.5708 13.6733 20.7412 15.7874C19.8669 18.0786 17.8121 19.8499 15.4315 20.4308C15.4331 19.7646 15.4348 19.0999 15.4299 18.4345C16.5609 18.3273 17.7999 18.2281 18.7148 17.4758C19.6386 16.6665 19.8523 15.2893 19.5842 14.1404C19.3778 13.2638 18.5515 12.708 17.7171 12.5138C19.1113 11.7744 19.2576 9.62945 18.1193 8.60814C17.3734 7.97682 16.3683 7.83382 15.4323 7.70788V7.70788ZM8.3262 7.67945C9.23457 6.88157 10.2632 6.20963 11.4186 5.83507C11.4243 6.46232 11.4226 7.08957 11.4226 7.71682C10.3899 7.71845 9.35726 7.72901 8.32701 7.67945H8.3262ZM7.12207 9.29632C7.4227 8.73326 7.89557 8.2872 8.19295 7.72332C8.24657 7.79238 8.26607 7.87607 8.25063 7.97357C8.25795 8.40176 8.26445 8.82913 8.3262 9.25245C8.85188 9.2557 9.3857 9.21507 9.90651 9.31826C10.2218 9.37838 10.4119 9.70582 10.3932 10.0089C10.4103 11.889 10.3883 13.7699 10.4038 15.6501C10.3875 15.9791 10.4696 16.3764 10.1836 16.6169C9.69364 16.7819 9.1647 16.6933 8.6577 16.7039C8.46107 17.2458 8.32538 17.8105 8.31401 18.3858C9.34751 18.4426 10.3859 18.4044 11.4218 18.415C11.4218 19.0406 11.4234 19.6679 11.4194 20.2935C9.39057 19.6411 7.65751 18.1266 6.78407 16.1798C5.77251 14.008 5.90901 11.3609 7.12207 9.29551V9.29632ZM12.9152 9.37839C13.8154 9.40439 14.8051 9.26788 15.6159 9.74888C16.3106 10.1438 16.3537 11.2593 15.6809 11.6989C14.8701 12.2368 13.8423 12.1336 12.916 12.1506V9.37839H12.9152ZM12.9152 13.6424H12.916C14.0226 13.6724 15.2341 13.4831 16.231 14.0787C16.9647 14.4874 17.05 15.6549 16.3383 16.1278C15.3429 16.8176 14.0592 16.6251 12.916 16.7177V13.6416L12.9152 13.6424ZM12.8738 18.4564H13.9828C13.9828 19.1844 13.9844 19.9124 13.9812 20.6404C13.6104 20.6307 13.2399 20.6142 12.8697 20.5909C12.8721 19.8791 12.8738 19.1674 12.8738 18.4564Z" fill="black"/>
</g>
<defs>
<clipPath id="clip0_111_402">
<rect width="26" height="26" fill="white" transform="translate(0.674072 0.0646973)"/>
</clipPath>
</defs>
</svg>
