<svg width="40" height="40" viewBox="0 0 40 40" fill="none" xmlns="http://www.w3.org/2000/svg">
<g clip-path="url(#clip0_7_83)">
<path d="M2.5 35V5C2.5 3.62063 3.62313 2.5 5 2.5H30C31.3794 2.5 32.5 3.62063 32.5 5V19.6972L35 17.1972V5C35 2.23875 32.7612 0 30 0H5C2.23875 0 0 2.23875 0 5V35C0 37.7612 2.23875 40 5 40H18.75V37.5H5C3.62313 37.5 2.5 36.3794 2.5 35ZM27.5 7.5H7.5V10H27.5V7.5ZM27.5 12.5H7.5V15H27.5V12.5ZM27.5 17.5H7.5V20H27.5V17.5ZM7.5 25H17.5V22.5H7.5V25ZM39.2675 22.5L37.5 20.7325C37.0116 20.2441 36.3722 20 35.7325 20C35.0928 20 34.4531 20.2441 33.965 20.7325L23.2325 31.465C22.7441 31.9531 21.25 33.8416 21.25 34.4812L20 40L25.5175 38.75C25.5175 38.75 28.0469 37.2559 28.535 36.7675L39.2675 26.035C40.2441 25.0587 40.2441 23.4753 39.2675 22.5ZM27.6537 35.8812C27.5122 36.0156 27.0225 36.3462 26.4244 36.7272L23.1859 33.4888C23.5181 33.0334 23.8878 32.5756 24.1162 32.3488L32.1972 24.2678L35.7325 27.8031L27.6537 35.8812Z" fill="white"/>
</g>
<defs>
<clipPath id="clip0_7_83">
<rect width="40" height="40" fill="white"/>
</clipPath>
</defs>
</svg>
