<svg width="24" height="24" viewBox="0 0 24 24" fill="none" xmlns="http://www.w3.org/2000/svg">
<path d="M11.9844 12.4627C7.21082 12.4717 3.26191 16.251 3.02343 21.0271C3.01709 21.1627 3.03839 21.2981 3.08603 21.4251C3.13368 21.5522 3.20669 21.6682 3.3006 21.7661C3.39452 21.864 3.50738 21.9418 3.63232 21.9948C3.75725 22.0477 3.89166 22.0747 4.02734 22.074H19.9805C20.1155 22.0736 20.249 22.0459 20.3731 21.9925C20.4971 21.9391 20.609 21.8611 20.7021 21.7633C20.7952 21.6655 20.8675 21.5498 20.9146 21.4233C20.9618 21.2968 20.9829 21.162 20.9766 21.0271C20.7378 16.245 16.7796 12.4632 12 12.4627H11.9844Z" fill="#0F0742"/>
<path d="M12.0004 1.92599C9.46995 1.92599 7.407 3.99865 7.40698 6.53188C7.40698 9.06511 9.46993 11.1449 12.0004 11.1449C14.5308 11.1449 16.6009 9.06511 16.6009 6.53188C16.6009 3.99865 14.5308 1.92599 12.0004 1.92599Z" fill="#0F0742"/>
</svg>
