<svg width="26" height="26" viewBox="0 0 26 26" fill="none" xmlns="http://www.w3.org/2000/svg">
<path d="M24.1429 7.79515C24.1429 8.17859 24.0087 8.50451 23.7403 8.77293L13.3307 19.1824L11.3753 21.1378C11.107 21.4062 10.7811 21.5404 10.3976 21.5404C10.0142 21.5404 9.68833 21.4062 9.41995 21.1378L7.46454 19.1824L2.25975 13.9776C1.99137 13.7093 1.85718 13.3834 1.85718 13C1.85718 12.6165 1.99137 12.2906 2.25975 12.0222L4.21516 10.0668C4.48354 9.79851 4.80943 9.66436 5.19285 9.66436C5.57626 9.66436 5.90216 9.79851 6.17054 10.0668L10.3976 14.3083L19.8295 4.86216C20.0979 4.59374 20.4238 4.45953 20.8072 4.45953C21.1906 4.45953 21.5165 4.59374 21.7849 4.86216L23.7403 6.81755C24.0087 7.08584 24.1429 7.41171 24.1429 7.79515Z" fill="#0F0742"/>
</svg>
