<svg width="26" height="26" viewBox="0 0 26 26" fill="none" xmlns="http://www.w3.org/2000/svg">
<path fill-rule="evenodd" clip-rule="evenodd" d="M4.68006 24.7H9.36006V16.9C9.36006 16.328 9.82806 15.86 10.4001 15.86H15.0801C15.6521 15.86 16.1201 16.328 16.1201 16.9V24.7H21.3201C22.2041 24.7 22.8801 24.024 22.8801 23.14V10.972L13.6241 5.87599C13.4681 5.71999 13.2601 5.66799 13.0001 5.66799C12.7401 5.66799 12.5321 5.71999 12.3241 5.87599L3.12006 10.972V23.14C3.12006 24.024 3.79606 24.7 4.68006 24.7ZM20.5921 1.29999H18.5121C18.2521 1.29999 17.9921 1.50799 17.9921 1.81999V4.47199L13.5201 1.87199C13.2081 1.66399 12.7921 1.66399 12.4801 1.87199L1.71606 8.05999C1.24806 8.37199 1.09206 8.99599 1.35206 9.51599C1.66406 9.98399 2.28806 10.14 2.75606 9.87999L12.4801 4.26399C12.7921 4.10799 13.2081 4.10799 13.5201 4.26399L23.2441 9.87999C23.7121 10.14 24.3361 9.98399 24.6481 9.51599C24.9081 8.99599 24.7521 8.37199 24.2841 8.05999L21.1121 6.29199V1.81999C21.1121 1.50799 20.9041 1.29999 20.5921 1.29999Z" fill="#0F0742"/>
</svg>
