<svg width="26" height="26" viewBox="0 0 26 26" fill="none" xmlns="http://www.w3.org/2000/svg">
<path d="M24.1429 19.7908C24.1429 20.291 23.9678 20.7162 23.6176 21.0664L21.0664 23.6176C20.7162 23.9678 20.291 24.1429 19.7908 24.1429C19.2906 24.1429 18.8654 23.9678 18.5152 23.6176L13 18.1024L7.48488 23.6176C7.13471 23.9678 6.7095 24.1429 6.20926 24.1429C5.70902 24.1429 5.28382 23.9678 4.93366 23.6176L2.38243 21.0664C2.03226 20.7162 1.85718 20.291 1.85718 19.7908C1.85718 19.2905 2.03226 18.8653 2.38243 18.5152L7.89759 13L2.38243 7.48485C2.03226 7.13468 1.85718 6.70947 1.85718 6.20923C1.85718 5.70899 2.03226 5.28379 2.38243 4.93363L4.93366 2.3824C5.28382 2.03223 5.70902 1.85715 6.20926 1.85715C6.7095 1.85715 7.13471 2.03223 7.48488 2.3824L13 7.89756L18.5152 2.3824C18.8654 2.03223 19.2906 1.85715 19.7908 1.85715C20.291 1.85715 20.7162 2.03223 21.0664 2.3824L23.6176 4.93363C23.9678 5.28379 24.1429 5.70899 24.1429 6.20923C24.1429 6.70947 23.9678 7.13468 23.6176 7.48485L18.1025 13L23.6176 18.5152C23.9678 18.8653 24.1429 19.2905 24.1429 19.7908Z" fill="#0F0742"/>
</svg>
