<svg width="40" height="40" viewBox="0 0 40 40" fill="none" xmlns="http://www.w3.org/2000/svg">
<path d="M26.3157 5.60897L37.0525 7.05258L28.2104 15.8947L26.3157 5.60897ZM13.6841 34.4812L2.94727 33.0375L11.7894 24.1954L13.6841 34.4812ZM5.56381 13.7293L7.00742 2.99243L15.8495 11.8345L5.56381 13.7293Z" fill="white"/>
<path d="M6.73663 17.5188L2.94716 18.2406C2.85693 18.8721 2.85693 19.4135 2.85693 20.0451C2.85693 24.1955 4.30054 28.1654 7.00731 31.233L9.71408 28.8872C7.63889 26.4511 6.46596 23.2932 6.46596 20.0451C6.46596 19.233 6.55618 18.3308 6.73663 17.5188ZM19.9998 2.90222C15.1276 2.90222 10.7968 4.97741 7.63889 8.22553L10.1652 10.7518C12.6915 8.1353 16.1201 6.51124 19.9998 6.51124C20.8118 6.51124 21.7141 6.60147 22.5261 6.78192L23.1577 3.26312C22.1652 2.99245 21.0825 2.90222 19.9998 2.90222ZM33.2629 22.5714L37.0524 21.8496C37.1426 21.218 37.1426 20.6767 37.1426 20.0451C37.1426 16.0752 35.7893 12.1955 33.2629 9.12779L30.466 11.3834C32.4509 13.8195 33.5336 16.8872 33.5336 19.9549C33.5336 20.8571 33.4434 21.7594 33.2629 22.5714ZM29.8344 29.3383C27.3081 31.9549 23.8795 33.5789 19.9998 33.5789C19.1878 33.5789 18.2855 33.4887 17.4735 33.3082L16.8419 36.827C17.9246 37.0075 19.0073 37.0977 19.9998 37.0977C24.872 37.0977 29.2028 35.0225 32.3607 31.7744L29.8344 29.3383Z" fill="white"/>
<path d="M34.4361 26.3608L32.9925 37.0977L24.1504 28.2556L34.4361 26.3608Z" fill="white"/>
</svg>
