<svg width="26" height="26" viewBox="0 0 26 26" fill="none" xmlns="http://www.w3.org/2000/svg">
<path d="M17.1052 3.64588L24.0842 4.58423L18.3368 10.3316L17.1052 3.64588ZM8.89472 22.4128L1.91577 21.4745L7.66314 15.7271L8.89472 22.4128ZM3.61652 8.92408L4.55487 1.94513L10.3022 7.6925L3.61652 8.92408Z" fill="#0F0742"/>
<path d="M4.37898 11.3872L1.91582 11.8564C1.85718 12.2669 1.85718 12.6188 1.85718 13.0293C1.85718 15.7271 2.79552 18.3075 4.55492 20.3015L6.31432 18.7767C4.96545 17.1932 4.20304 15.1406 4.20304 13.0293C4.20304 12.5015 4.26169 11.915 4.37898 11.3872ZM13 1.88647C9.83312 1.88647 7.01808 3.23535 4.96545 5.34663L6.60755 6.98873C8.24966 5.28798 10.4782 4.23234 13 4.23234C13.5279 4.23234 14.1143 4.29099 14.6421 4.40828L15.0527 2.12106C14.4076 1.94512 13.7038 1.88647 13 1.88647ZM21.6211 14.6714L24.0842 14.2023C24.1429 13.7917 24.1429 13.4399 24.1429 13.0293C24.1429 10.4489 23.2632 7.92708 21.6211 5.93309L19.803 7.39926C21.0933 8.98272 21.797 10.9767 21.797 12.9707C21.797 13.5572 21.7384 14.1436 21.6211 14.6714ZM19.3925 19.0699C17.7504 20.7707 15.5218 21.8263 13 21.8263C12.4722 21.8263 11.8857 21.7677 11.3579 21.6504L10.9474 23.9376C11.6512 24.0549 12.3549 24.1135 13 24.1135C16.167 24.1135 18.982 22.7647 21.0346 20.6534L19.3925 19.0699Z" fill="#0F0742"/>
<path d="M22.3835 17.1346L21.4451 24.1135L15.6978 18.3662L22.3835 17.1346Z" fill="#0F0742"/>
</svg>
