<svg width="80" height="80" viewBox="0 0 80 80" fill="none" xmlns="http://www.w3.org/2000/svg">
<path d="M39.9479 41.5422C24.0361 41.5722 10.8731 54.17 10.0781 70.0904C10.057 70.5421 10.128 70.9935 10.2868 71.417C10.4456 71.8405 10.689 72.2272 11.002 72.5537C11.3151 72.8801 11.6913 73.1395 12.1077 73.3159C12.5242 73.4923 12.9722 73.5822 13.4245 73.5799H66.6016C67.0517 73.5786 67.4968 73.4862 67.9102 73.3082C68.3236 73.1302 68.6967 72.8703 69.007 72.5442C69.3172 72.2182 69.5582 71.8326 69.7155 71.4109C69.8727 70.9892 69.9429 70.54 69.9219 70.0904C69.1259 54.1498 55.932 41.5439 40 41.5422H39.9479Z" fill="white"/>
<path d="M40.0012 6.41998C31.5665 6.41998 24.69 13.3288 24.6899 21.7729C24.6899 30.217 31.5664 37.1497 40.0012 37.1497C48.436 37.1497 55.3363 30.217 55.3363 21.7729C55.3362 13.3288 48.4359 6.41998 40.0012 6.41998Z" fill="white"/>
</svg>
